<svg width="628" height="129" viewBox="0 0 628 129" fill="none" xmlns="http://www.w3.org/2000/svg">
<path d="M151.4 100.16L136.828 126.186C136.527 126.723 135.754 126.726 135.449 126.192L120.587 100.163C120.254 99.5801 120.753 98.8743 121.414 98.9924L136.003 101.597C136.096 101.613 136.191 101.613 136.284 101.596L150.567 98.9961C151.226 98.8761 151.727 99.5765 151.4 100.16Z" fill="url(#paint0_linear_233_24)"/>
<path d="M142.952 95.5765L132.168 97.6869C131.99 97.7216 131.859 97.8716 131.848 98.0517L131.185 109.241C131.169 109.505 131.412 109.71 131.669 109.65L134.672 108.958C134.953 108.894 135.207 109.141 135.149 109.423L134.257 113.785C134.197 114.079 134.473 114.33 134.76 114.243L136.614 113.68C136.902 113.593 137.178 113.845 137.117 114.139L135.7 120.991C135.611 121.42 136.182 121.654 136.42 121.286L136.579 121.041L145.366 103.526C145.514 103.233 145.26 102.898 144.937 102.96L141.847 103.556C141.556 103.612 141.309 103.342 141.391 103.058L143.408 96.0742C143.49 95.79 143.242 95.5196 142.952 95.5765Z" fill="url(#paint1_linear_233_24)"/>
<path d="M166.752 103.817L170.628 115.537H170.78L174.648 103.817H177.615L172.365 118.708H169.035L163.793 103.817H166.752ZM179.46 118.708V107.54H182.092V118.708H179.46ZM180.783 105.955C180.366 105.955 180.008 105.816 179.707 105.54C179.406 105.259 179.256 104.922 179.256 104.53C179.256 104.132 179.406 103.795 179.707 103.519C180.008 103.238 180.366 103.097 180.783 103.097C181.205 103.097 181.563 103.238 181.859 103.519C182.16 103.795 182.31 104.132 182.31 104.53C182.31 104.922 182.16 105.259 181.859 105.54C181.563 105.816 181.205 105.955 180.783 105.955ZM190.375 107.54V109.575H183.955V107.54H190.375ZM185.54 104.864H188.172V115.348C188.172 115.702 188.225 115.974 188.332 116.163C188.443 116.347 188.589 116.473 188.768 116.541C188.948 116.609 189.146 116.643 189.364 116.643C189.529 116.643 189.679 116.631 189.815 116.606C189.956 116.582 190.062 116.56 190.135 116.541L190.579 118.598C190.438 118.647 190.237 118.7 189.975 118.758C189.718 118.817 189.403 118.851 189.03 118.86C188.371 118.88 187.777 118.78 187.249 118.562C186.72 118.339 186.301 117.995 185.991 117.53C185.685 117.064 185.535 116.483 185.54 115.785V104.864ZM197.4 118.926C196.281 118.926 195.314 118.693 194.499 118.228C193.69 117.757 193.067 117.093 192.631 116.235C192.195 115.373 191.976 114.357 191.976 113.189C191.976 112.04 192.195 111.032 192.631 110.164C193.072 109.292 193.687 108.613 194.478 108.129C195.268 107.639 196.196 107.394 197.262 107.394C197.951 107.394 198.6 107.506 199.211 107.729C199.826 107.947 200.369 108.286 200.839 108.747C201.315 109.207 201.688 109.794 201.959 110.506C202.231 111.214 202.366 112.057 202.366 113.036V113.843H193.212V112.069H199.843C199.839 111.565 199.729 111.117 199.516 110.724C199.303 110.327 199.005 110.014 198.622 109.786C198.244 109.558 197.803 109.445 197.299 109.445C196.761 109.445 196.288 109.575 195.881 109.837C195.474 110.094 195.156 110.433 194.928 110.855C194.705 111.272 194.591 111.73 194.587 112.229V113.778C194.587 114.427 194.705 114.985 194.943 115.45C195.18 115.911 195.512 116.265 195.939 116.512C196.366 116.754 196.865 116.875 197.437 116.875C197.82 116.875 198.166 116.822 198.476 116.715C198.787 116.604 199.056 116.441 199.284 116.228C199.511 116.015 199.683 115.751 199.8 115.436L202.257 115.712C202.102 116.361 201.806 116.929 201.37 117.413C200.939 117.893 200.386 118.266 199.713 118.533C199.039 118.795 198.268 118.926 197.4 118.926Z" fill="#BABABB"/>
<path d="M247.743 96.1895L243.731 103.21L239.719 96.1895H226.358L243.731 126.591L261.103 96.1895H247.743Z" fill="#41B883"/>
<path d="M247.743 96.1895L243.731 103.21L239.719 96.1895L233.307 96.1895L243.731 114.43L254.154 96.1895L247.743 96.1895Z" fill="#34495E"/>
<path d="M274.491 103.817L278.366 115.537H278.519L282.387 103.817H285.353L280.104 118.708H276.774L271.532 103.817H274.491ZM294.317 114.011V107.54H296.949V118.708H294.396V116.723H294.28C294.028 117.348 293.614 117.859 293.037 118.257C292.465 118.654 291.76 118.853 290.921 118.853C290.189 118.853 289.542 118.691 288.98 118.366C288.422 118.036 287.986 117.559 287.671 116.933C287.356 116.303 287.198 115.542 287.198 114.65V107.54H289.83V114.243C289.83 114.951 290.024 115.513 290.412 115.93C290.8 116.347 291.309 116.555 291.939 116.555C292.327 116.555 292.702 116.461 293.066 116.272C293.429 116.083 293.728 115.802 293.96 115.428C294.198 115.05 294.317 114.578 294.317 114.011ZM304.599 118.926C303.48 118.926 302.512 118.693 301.698 118.228C300.889 117.757 300.266 117.093 299.83 116.235C299.393 115.373 299.175 114.357 299.175 113.189C299.175 112.04 299.393 111.032 299.83 110.164C300.271 109.292 300.886 108.613 301.676 108.129C302.466 107.639 303.395 107.394 304.461 107.394C305.149 107.394 305.799 107.506 306.41 107.729C307.025 107.947 307.568 108.286 308.038 108.747C308.513 109.207 308.887 109.794 309.158 110.506C309.429 111.214 309.565 112.057 309.565 113.036V113.843H300.411V112.069H307.042C307.037 111.565 306.928 111.117 306.715 110.724C306.502 110.327 306.204 110.014 305.821 109.786C305.443 109.558 305.002 109.445 304.497 109.445C303.959 109.445 303.487 109.575 303.08 109.837C302.672 110.094 302.355 110.433 302.127 110.855C301.904 111.272 301.79 111.73 301.785 112.229V113.778C301.785 114.427 301.904 114.985 302.142 115.45C302.379 115.911 302.711 116.265 303.138 116.512C303.564 116.754 304.064 116.875 304.636 116.875C305.018 116.875 305.365 116.822 305.675 116.715C305.985 116.604 306.255 116.441 306.482 116.228C306.71 116.015 306.882 115.751 306.999 115.436L309.456 115.712C309.301 116.361 309.005 116.929 308.569 117.413C308.138 117.893 307.585 118.266 306.911 118.533C306.238 118.795 305.467 118.926 304.599 118.926Z" fill="#BABABB"/>
<path d="M356.153 97.3726C350.386 97.3726 346.782 100.256 345.34 106.022C347.503 103.139 350.026 102.058 352.909 102.779C354.554 103.19 355.73 104.383 357.031 105.704C359.151 107.857 361.605 110.347 366.965 110.347C372.731 110.347 376.336 107.464 377.777 101.697C375.615 104.581 373.092 105.662 370.209 104.941C368.563 104.53 367.388 103.336 366.086 102.015C363.966 99.8633 361.512 97.3726 356.153 97.3726ZM345.34 110.347C339.574 110.347 335.97 113.231 334.528 118.997C336.69 116.114 339.213 115.033 342.097 115.753C343.742 116.165 344.917 117.358 346.219 118.679C348.339 120.831 350.793 123.322 356.153 123.322C361.919 123.322 365.523 120.439 366.965 114.672C364.802 117.556 362.28 118.637 359.396 117.916C357.751 117.505 356.575 116.311 355.274 114.99C353.154 112.838 350.7 110.347 345.34 110.347Z" fill="#38BDF8"/>
<path d="M383.679 106.078V103.817H395.559V106.078H390.957V118.708H388.281V106.078H383.679ZM399.428 118.933C398.72 118.933 398.082 118.807 397.515 118.555C396.953 118.298 396.507 117.92 396.177 117.421C395.853 116.921 395.69 116.306 395.69 115.574C395.69 114.944 395.807 114.423 396.039 114.011C396.272 113.599 396.59 113.269 396.992 113.022C397.394 112.775 397.847 112.588 398.351 112.462C398.86 112.331 399.386 112.237 399.929 112.178C400.584 112.111 401.114 112.05 401.522 111.997C401.929 111.938 402.224 111.851 402.409 111.735C402.598 111.614 402.692 111.427 402.692 111.175V111.131C402.692 110.584 402.53 110.16 402.205 109.859C401.88 109.558 401.412 109.408 400.802 109.408C400.157 109.408 399.646 109.549 399.268 109.83C398.894 110.111 398.642 110.443 398.511 110.826L396.054 110.477C396.248 109.798 396.568 109.231 397.014 108.776C397.46 108.315 398.005 107.971 398.65 107.743C399.294 107.511 400.007 107.394 400.787 107.394C401.325 107.394 401.861 107.457 402.394 107.583C402.927 107.709 403.414 107.918 403.855 108.209C404.297 108.495 404.65 108.885 404.917 109.379C405.188 109.874 405.324 110.492 405.324 111.233V118.708H402.794V117.173H402.707C402.547 117.484 402.321 117.774 402.03 118.046C401.744 118.312 401.383 118.528 400.947 118.693C400.516 118.853 400.009 118.933 399.428 118.933ZM400.111 116.999C400.639 116.999 401.097 116.895 401.485 116.686C401.873 116.473 402.171 116.192 402.379 115.843C402.593 115.494 402.699 115.113 402.699 114.701V113.385C402.617 113.453 402.476 113.516 402.278 113.574C402.084 113.633 401.866 113.683 401.623 113.727C401.381 113.771 401.141 113.809 400.903 113.843C400.666 113.877 400.46 113.906 400.285 113.931C399.893 113.984 399.541 114.071 399.231 114.192C398.921 114.314 398.676 114.483 398.497 114.701C398.318 114.915 398.228 115.191 398.228 115.53C398.228 116.015 398.405 116.381 398.759 116.628C399.112 116.875 399.563 116.999 400.111 116.999ZM407.971 118.708V107.54H410.603V118.708H407.971ZM409.294 105.955C408.877 105.955 408.518 105.816 408.218 105.54C407.917 105.259 407.767 104.922 407.767 104.53C407.767 104.132 407.917 103.795 408.218 103.519C408.518 103.238 408.877 103.097 409.294 103.097C409.716 103.097 410.074 103.238 410.37 103.519C410.671 103.795 410.821 104.132 410.821 104.53C410.821 104.922 410.671 105.259 410.37 105.54C410.074 105.816 409.716 105.955 409.294 105.955ZM415.941 103.817V118.708H413.309V103.817H415.941ZM420.953 118.708L417.797 107.54H420.48L422.443 115.392H422.545L424.552 107.54H427.206L429.212 115.348H429.321L431.255 107.54H433.946L430.783 118.708H428.042L425.948 111.16H425.795L423.701 118.708H420.953ZM435.783 118.708V107.54H438.415V118.708H435.783ZM437.106 105.955C436.69 105.955 436.331 105.816 436.03 105.54C435.73 105.259 435.58 104.922 435.58 104.53C435.58 104.132 435.73 103.795 436.03 103.519C436.331 103.238 436.69 103.097 437.106 103.097C437.528 103.097 437.887 103.238 438.183 103.519C438.483 103.795 438.633 104.132 438.633 104.53C438.633 104.922 438.483 105.259 438.183 105.54C437.887 105.816 437.528 105.955 437.106 105.955ZM443.754 112.164V118.708H441.122V107.54H443.637V109.437H443.768C444.025 108.812 444.435 108.315 444.997 107.947C445.564 107.578 446.265 107.394 447.098 107.394C447.869 107.394 448.54 107.559 449.112 107.889C449.689 108.218 450.135 108.696 450.45 109.321C450.77 109.946 450.928 110.705 450.923 111.597V118.708H448.291V112.004C448.291 111.257 448.097 110.673 447.709 110.252C447.326 109.83 446.795 109.619 446.117 109.619C445.656 109.619 445.247 109.721 444.888 109.924C444.534 110.123 444.255 110.412 444.052 110.79C443.853 111.168 443.754 111.626 443.754 112.164ZM457.743 118.904C456.865 118.904 456.08 118.678 455.387 118.228C454.694 117.777 454.146 117.122 453.744 116.265C453.341 115.407 453.14 114.364 453.14 113.138C453.14 111.897 453.344 110.85 453.751 109.997C454.163 109.139 454.718 108.492 455.416 108.056C456.114 107.615 456.892 107.394 457.75 107.394C458.404 107.394 458.942 107.506 459.364 107.729C459.786 107.947 460.12 108.211 460.367 108.521C460.615 108.827 460.806 109.115 460.942 109.386H461.051V103.817H463.69V118.708H461.102V116.948H460.942C460.806 117.219 460.61 117.508 460.353 117.813C460.096 118.114 459.757 118.371 459.335 118.584C458.913 118.797 458.383 118.904 457.743 118.904ZM458.477 116.744C459.035 116.744 459.51 116.594 459.902 116.294C460.295 115.988 460.593 115.564 460.796 115.021C461 114.478 461.102 113.846 461.102 113.124C461.102 112.401 461 111.774 460.796 111.24C460.598 110.707 460.302 110.293 459.909 109.997C459.522 109.701 459.044 109.554 458.477 109.554C457.891 109.554 457.401 109.706 457.008 110.012C456.616 110.317 456.32 110.739 456.121 111.277C455.923 111.815 455.823 112.43 455.823 113.124C455.823 113.822 455.923 114.444 456.121 114.992C456.325 115.535 456.623 115.964 457.016 116.279C457.413 116.589 457.9 116.744 458.477 116.744ZM479.357 108.841H476.638C476.56 108.395 476.417 108 476.209 107.656C476 107.307 475.741 107.011 475.431 106.769C475.12 106.527 474.767 106.345 474.369 106.224C473.977 106.098 473.552 106.035 473.097 106.035C472.287 106.035 471.57 106.238 470.945 106.645C470.319 107.048 469.83 107.639 469.476 108.419C469.122 109.195 468.945 110.143 468.945 111.262C468.945 112.401 469.122 113.361 469.476 114.141C469.835 114.917 470.324 115.504 470.945 115.901C471.57 116.294 472.285 116.49 473.09 116.49C473.535 116.49 473.952 116.432 474.34 116.315C474.733 116.194 475.084 116.017 475.394 115.785C475.709 115.552 475.974 115.266 476.187 114.927C476.405 114.587 476.555 114.2 476.638 113.763L479.357 113.778C479.255 114.486 479.035 115.15 478.695 115.77C478.361 116.391 477.922 116.938 477.379 117.413C476.836 117.883 476.201 118.252 475.474 118.518C474.747 118.78 473.94 118.911 473.053 118.911C471.744 118.911 470.576 118.608 469.549 118.002C468.521 117.396 467.712 116.521 467.12 115.378C466.529 114.234 466.233 112.862 466.233 111.262C466.233 109.658 466.531 108.286 467.127 107.147C467.724 106.003 468.536 105.128 469.563 104.522C470.591 103.916 471.754 103.613 473.053 103.613C473.882 103.613 474.653 103.73 475.365 103.962C476.078 104.195 476.713 104.537 477.27 104.988C477.828 105.434 478.286 105.981 478.644 106.631C479.008 107.275 479.245 108.012 479.357 108.841ZM489.92 107.91C489.852 107.275 489.566 106.781 489.062 106.427C488.562 106.073 487.913 105.896 487.113 105.896C486.551 105.896 486.068 105.981 485.666 106.151C485.264 106.321 484.956 106.551 484.743 106.842C484.529 107.132 484.42 107.464 484.416 107.838C484.416 108.148 484.486 108.417 484.626 108.645C484.772 108.873 484.968 109.066 485.215 109.226C485.463 109.382 485.736 109.512 486.037 109.619C486.337 109.726 486.64 109.815 486.946 109.888L488.342 110.237C488.904 110.368 489.445 110.545 489.963 110.768C490.487 110.991 490.954 111.272 491.366 111.611C491.783 111.951 492.113 112.36 492.355 112.84C492.598 113.32 492.719 113.882 492.719 114.527C492.719 115.399 492.496 116.168 492.05 116.832C491.604 117.491 490.959 118.007 490.116 118.38C489.277 118.749 488.262 118.933 487.069 118.933C485.911 118.933 484.905 118.754 484.052 118.395C483.204 118.036 482.54 117.513 482.06 116.824C481.585 116.136 481.328 115.298 481.289 114.309H483.943C483.982 114.827 484.142 115.259 484.423 115.603C484.704 115.947 485.07 116.204 485.521 116.374C485.976 116.543 486.485 116.628 487.048 116.628C487.634 116.628 488.148 116.541 488.589 116.366C489.035 116.187 489.384 115.94 489.636 115.625C489.888 115.305 490.016 114.932 490.021 114.505C490.016 114.117 489.903 113.797 489.68 113.545C489.457 113.288 489.144 113.075 488.742 112.905C488.344 112.731 487.879 112.576 487.346 112.44L485.652 112.004C484.425 111.689 483.456 111.211 482.743 110.572C482.036 109.927 481.682 109.071 481.682 108.005C481.682 107.128 481.919 106.359 482.394 105.7C482.874 105.041 483.526 104.53 484.35 104.166C485.174 103.798 486.107 103.613 487.149 103.613C488.206 103.613 489.132 103.798 489.927 104.166C490.727 104.53 491.354 105.036 491.81 105.686C492.266 106.33 492.501 107.072 492.515 107.91H489.92ZM503.216 107.91C503.148 107.275 502.862 106.781 502.358 106.427C501.859 106.073 501.209 105.896 500.409 105.896C499.847 105.896 499.365 105.981 498.963 106.151C498.56 106.321 498.252 106.551 498.039 106.842C497.826 107.132 497.717 107.464 497.712 107.838C497.712 108.148 497.782 108.417 497.923 108.645C498.068 108.873 498.265 109.066 498.512 109.226C498.759 109.382 499.033 109.512 499.333 109.619C499.634 109.726 499.937 109.815 500.242 109.888L501.638 110.237C502.2 110.368 502.741 110.545 503.26 110.768C503.783 110.991 504.251 111.272 504.663 111.611C505.08 111.951 505.409 112.36 505.652 112.84C505.894 113.32 506.015 113.882 506.015 114.527C506.015 115.399 505.792 116.168 505.346 116.832C504.9 117.491 504.256 118.007 503.412 118.38C502.574 118.749 501.558 118.933 500.366 118.933C499.207 118.933 498.202 118.754 497.348 118.395C496.5 118.036 495.836 117.513 495.356 116.824C494.881 116.136 494.624 115.298 494.586 114.309H497.239C497.278 114.827 497.438 115.259 497.719 115.603C498 115.947 498.366 116.204 498.817 116.374C499.273 116.543 499.782 116.628 500.344 116.628C500.931 116.628 501.444 116.541 501.885 116.366C502.331 116.187 502.68 115.94 502.932 115.625C503.184 115.305 503.313 114.932 503.318 114.505C503.313 114.117 503.199 113.797 502.976 113.545C502.753 113.288 502.44 113.075 502.038 112.905C501.641 112.731 501.175 112.576 500.642 112.44L498.948 112.004C497.722 111.689 496.752 111.211 496.04 110.572C495.332 109.927 494.978 109.071 494.978 108.005C494.978 107.128 495.216 106.359 495.691 105.7C496.171 105.041 496.823 104.53 497.647 104.166C498.471 103.798 499.404 103.613 500.446 103.613C501.502 103.613 502.428 103.798 503.223 104.166C504.023 104.53 504.651 105.036 505.106 105.686C505.562 106.33 505.797 107.072 505.812 107.91H503.216Z" fill="#BABABB"/>
<path d="M165.013 51.4336H161.228V55.2183H127.166V17.3713H161.228V21.156H165.013V32.5101H161.228V40.0795H165.013V51.4336ZM149.874 32.5101V24.9407H142.304V32.5101H149.874ZM149.874 47.6489V40.0795H142.304V47.6489H149.874ZM212.7 51.4336H208.915V55.2183H178.638V51.4336H174.853V21.156H178.638V17.3713H208.915V21.156H212.7V51.4336ZM197.561 47.6489V24.9407H189.992V47.6489H197.561ZM237.679 55.2183H222.54V17.3713H237.679V55.2183ZM285.366 55.2183H247.519V17.3713H262.658V47.6489H285.366V55.2183ZM333.053 55.2183H298.991V51.4336H295.206V21.156H298.991V17.3713H333.053V24.9407H310.345V32.5101H321.699V40.0795H310.345V47.6489H333.053V55.2183ZM380.74 55.2183H365.601V40.0795H358.032V55.2183H342.893V17.3713H376.955V21.156H380.74V32.5101H376.955V40.0795H380.74V55.2183ZM365.601 32.5101V24.9407H358.032V32.5101H365.601ZM428.427 36.2948H424.643V40.0795H405.719V55.2183H390.58V17.3713H424.643V21.156H428.427V36.2948ZM413.288 32.5101V24.9407H405.719V32.5101H413.288ZM476.114 55.2183H438.267V17.3713H453.406V47.6489H476.114V55.2183ZM523.802 55.2183H508.663V40.0795H501.093V55.2183H485.955V21.156H489.739V17.3713H520.017V21.156H523.802V55.2183ZM508.663 32.5101V24.9407H501.093V32.5101H508.663ZM571.489 24.9407H560.135V55.2183H544.996V24.9407H533.642V17.3713H571.489V24.9407ZM619.176 55.2183H585.114V51.4336H581.329V21.156H585.114V17.3713H619.176V24.9407H596.468V32.5101H607.822V40.0795H596.468V47.6489H619.176V55.2183Z" fill="white"/>
<path d="M45.4163 54.8335V45.7502H18.1665V9.41716H9.08326V54.8335H45.4163ZM0 73V0.333893H27.2498V36.6669H54.4996V73H0ZM91.196 54.8335V9.41716H54.8629V18.5004H82.1127V45.7502H63.9462V36.6669H54.8629V54.8335H91.196ZM45.7796 73V0.333893H100.279V73H45.7796Z" fill="white"/>
<defs>
<linearGradient id="paint0_linear_233_24" x1="120.224" y1="94.5385" x2="141.154" y2="119.87" gradientUnits="userSpaceOnUse">
<stop stop-color="#41D1FF"/>
<stop offset="1" stop-color="#BD34FE"/>
</linearGradient>
<linearGradient id="paint1_linear_233_24" x1="135.165" y1="96.1495" x2="138.438" y2="118.629" gradientUnits="userSpaceOnUse">
<stop stop-color="#FFEA83"/>
<stop offset="0.0833333" stop-color="#FFDD35"/>
<stop offset="1" stop-color="#FFA800"/>
</linearGradient>
</defs>
</svg>
